# xmcd
#
# Track frame offsets: 
#        150
#        16025
#        28775
#        45353
#        65389
#        75020
#        101349
#        114440
#        133458
#        151230
#
# Disc length: 2277 seconds
#
# Revision: 0
# Processed by: cddbd v1.5.2PL0 Copyright (c) Steve Scherf et al.
# Submitted via: ExactAudioCopy v1.3
#
DISCID=6908e30a
DTITLE=Lew Jetton and 61 South - Rain
DYEAR=2016
DGENRE=Electric Blues
TTITLE0=Who's Texting You
TTITLE1=Move On Yvonne
TTITLE2=Mississippi Rain
TTITLE3=Lay Me Down
TTITLE4=Glory Train
TTITLE5=Feels Like Rain
TTITLE6=Done Done It
TTITLE7=Sandy Lee
TTITLE8=Keeping Me Awake
TTITLE9=It's Raining
EXTD=
EXTT0=
EXTT1=
EXTT2=
EXTT3=
EXTT4=
EXTT5=
EXTT6=
EXTT7=
EXTT8=
EXTT9=
PLAYORDER=
